# Blender v2.77 (sub 0) OBJ File: ''
# www.blender.org
mtllib BigBoom.mtl
o Cone
v -0.012182 0.025534 -0.992357
v 0.182908 0.025534 -0.973143
v 0.370501 0.025534 -0.916237
v 0.543388 0.025534 -0.823827
v 0.694925 0.025534 -0.699464
v 0.819288 0.025534 -0.547927
v 0.911697 0.025534 -0.375041
v 0.968603 0.025534 -0.187448
v 0.987818 0.025534 0.007643
v -0.012182 2.025534 0.007643
v 0.968603 0.025534 0.202733
v 0.911697 0.025534 0.390326
v 0.819288 0.025534 0.563213
v 0.694925 0.025534 0.714750
v 0.543388 0.025534 0.839112
v 0.370501 0.025534 0.931522
v 0.182908 0.025534 0.988428
v -0.012182 0.025534 1.007643
v -0.207273 0.025534 0.988428
v -0.394866 0.025534 0.931522
v -0.567753 0.025534 0.839112
v -0.719289 0.025534 0.714749
v -0.843652 0.025534 0.563212
v -0.936062 0.025534 0.390325
v -0.992968 0.025534 0.202732
v -1.012182 0.025534 0.007642
v -0.992967 0.025534 -0.187449
v -0.936061 0.025534 -0.375042
v -0.843651 0.025534 -0.547928
v -0.719288 0.025534 -0.699465
v -0.567751 0.025534 -0.823828
v -0.394864 0.025534 -0.916237
v -0.207271 0.025534 -0.973143
vt 0.0000 0.0000
vt 1.0000 0.0000
vt 1.0000 1.0000
vt 0.0000 0.0000
vt 1.0000 1.0000
vt 0.0000 0.0000
vt 1.0000 1.0000
vt 0.0000 0.0000
vt 1.0000 1.0000
vt 0.0000 0.0000
vt 1.0000 1.0000
vt 0.0000 0.0000
vt 1.0000 1.0000
vt 0.0000 0.0000
vt 1.0000 1.0000
vt 0.0000 0.0000
vt 1.0000 1.0000
vt 0.0000 0.0000
vt 1.0000 1.0000
vt 0.0000 0.0000
vt 1.0000 1.0000
vt 0.0000 0.0000
vt 1.0000 1.0000
vt 0.0000 0.0000
vt 1.0000 1.0000
vt 0.0000 0.0000
vt 1.0000 1.0000
vt 0.0000 0.0000
vt 1.0000 1.0000
vt 0.0000 0.0000
vt 1.0000 1.0000
vt 0.0000 0.0000
vt 1.0000 1.0000
vt 0.0000 0.0000
vt 1.0000 1.0000
vt 0.0000 0.0000
vt 1.0000 1.0000
vt 0.0000 0.0000
vt 1.0000 1.0000
vt 0.0000 0.0000
vt 1.0000 1.0000
vt 0.0000 0.0000
vt 1.0000 1.0000
vt 0.0000 0.0000
vt 1.0000 1.0000
vt 0.0000 0.0000
vt 1.0000 1.0000
vt 0.0000 0.0000
vt 1.0000 1.0000
vt 0.0000 0.0000
vt 1.0000 1.0000
vt 0.0000 0.0000
vt 1.0000 1.0000
vt 0.0000 0.0000
vt 1.0000 1.0000
vt 0.0000 0.0000
vt 1.0000 1.0000
vt 0.0000 0.0000
vt 1.0000 1.0000
vt 0.0000 0.0000
vt 1.0000 1.0000
vt 0.0000 0.0000
vt 1.0000 1.0000
vt 0.0000 0.0000
vt 1.0000 1.0000
vt 0.5975 0.0096
vt 0.0096 0.4025
vt 0.4025 0.9904
vt 0.5000 1.0000
vt 0.5975 0.9904
vt 0.6913 0.9619
vt 0.7778 0.9157
vt 0.8536 0.8536
vt 0.9904 0.5975
vt 0.9157 0.7778
vt 0.9619 0.6913
vt 1.0000 0.5000
vt 0.9904 0.4025
vt 0.9619 0.3087
vt 0.9157 0.2222
vt 0.8536 0.1464
vt 0.7778 0.0843
vt 0.6913 0.0381
vt 0.5000 0.0000
vt 0.2222 0.0843
vt 0.4025 0.0096
vt 0.3087 0.0381
vt 0.1464 0.1464
vt 0.0843 0.2222
vt 0.0381 0.3087
vt 0.0000 0.5000
vt 0.0096 0.5975
vt 0.0381 0.6913
vt 0.0843 0.7778
vt 0.1464 0.8536
vt 0.2222 0.9157
vt 0.3087 0.9619
vn 0.0878 0.4455 -0.8910
vn 0.2599 0.4455 -0.8567
vn 0.4220 0.4455 -0.7896
vn 0.5680 0.4455 -0.6921
vn 0.6921 0.4455 -0.5680
vn 0.7896 0.4455 -0.4220
vn 0.8567 0.4455 -0.2599
vn 0.8910 0.4455 -0.0878
vn 0.8910 0.4455 0.0878
vn 0.8567 0.4455 0.2599
vn 0.7896 0.4455 0.4220
vn 0.6921 0.4455 0.5680
vn 0.5680 0.4455 0.6921
vn 0.4220 0.4455 0.7896
vn 0.2599 0.4455 0.8567
vn 0.0878 0.4455 0.8910
vn -0.0878 0.4455 0.8910
vn -0.2599 0.4455 0.8567
vn -0.4220 0.4455 0.7896
vn -0.5680 0.4455 0.6921
vn -0.6921 0.4455 0.5680
vn -0.7896 0.4455 0.4220
vn -0.8567 0.4455 0.2599
vn -0.8910 0.4455 0.0878
vn -0.8910 0.4455 -0.0878
vn -0.8567 0.4455 -0.2599
vn -0.7896 0.4455 -0.4220
vn -0.6921 0.4455 -0.5680
vn -0.5680 0.4455 -0.6921
vn -0.4220 0.4455 -0.7896
vn -0.2599 0.4455 -0.8567
vn -0.0878 0.4455 -0.8910
vn 0.0000 -1.0000 -0.0000
usemtl None
s off
f 1/1/1 10/2/1 2/3/1
f 2/4/2 10/2/2 3/5/2
f 3/6/3 10/2/3 4/7/3
f 4/8/4 10/2/4 5/9/4
f 5/10/5 10/2/5 6/11/5
f 6/12/6 10/2/6 7/13/6
f 7/14/7 10/2/7 8/15/7
f 8/16/8 10/2/8 9/17/8
f 9/18/9 10/2/9 11/19/9
f 11/20/10 10/2/10 12/21/10
f 12/22/11 10/2/11 13/23/11
f 13/24/12 10/2/12 14/25/12
f 14/26/13 10/2/13 15/27/13
f 15/28/14 10/2/14 16/29/14
f 16/30/15 10/2/15 17/31/15
f 17/32/16 10/2/16 18/33/16
f 18/34/17 10/2/17 19/35/17
f 19/36/18 10/2/18 20/37/18
f 20/38/19 10/2/19 21/39/19
f 21/40/20 10/2/20 22/41/20
f 22/42/21 10/2/21 23/43/21
f 23/44/22 10/2/22 24/45/22
f 24/46/23 10/2/23 25/47/23
f 25/48/24 10/2/24 26/49/24
f 26/50/25 10/2/25 27/51/25
f 27/52/26 10/2/26 28/53/26
f 28/54/27 10/2/27 29/55/27
f 29/56/28 10/2/28 30/57/28
f 30/58/29 10/2/29 31/59/29
f 31/60/30 10/2/30 32/61/30
f 32/62/31 10/2/31 33/63/31
f 33/64/32 10/2/32 1/65/32
f 17/66/33 25/67/33 33/68/33
f 33/68/33 1/69/33 2/70/33
f 2/70/33 3/71/33 4/72/33
f 4/72/33 5/73/33 8/74/33
f 6/75/33 7/76/33 8/74/33
f 8/74/33 9/77/33 11/78/33
f 11/78/33 12/79/33 8/74/33
f 13/80/33 14/81/33 15/82/33
f 15/82/33 16/83/33 17/66/33
f 17/66/33 18/84/33 21/85/33
f 19/86/33 20/87/33 21/85/33
f 21/85/33 22/88/33 23/89/33
f 23/89/33 24/90/33 25/67/33
f 25/67/33 26/91/33 27/92/33
f 27/92/33 28/93/33 25/67/33
f 29/94/33 30/95/33 33/68/33
f 31/96/33 32/97/33 33/68/33
f 33/68/33 2/70/33 4/72/33
f 5/73/33 6/75/33 8/74/33
f 8/74/33 12/79/33 13/80/33
f 13/80/33 15/82/33 8/74/33
f 18/84/33 19/86/33 21/85/33
f 21/85/33 23/89/33 25/67/33
f 25/67/33 28/93/33 29/94/33
f 30/95/33 31/96/33 33/68/33
f 33/68/33 4/72/33 17/66/33
f 8/74/33 15/82/33 17/66/33
f 17/66/33 21/85/33 25/67/33
f 25/67/33 29/94/33 33/68/33
f 4/72/33 8/74/33 17/66/33
