# Blender v2.77 (sub 0) OBJ File: ''
# www.blender.org
o Cylinder
v -0.159121 0.013562 0.150349
v 0.067794 1.191912 0.150349
v -0.133214 0.008573 0.148715
v 0.093701 1.186924 0.148715
v -0.108302 0.003776 0.143879
v 0.118612 1.182126 0.143879
v -0.085344 -0.000645 0.136024
v 0.141571 1.177705 0.136024
v -0.065221 -0.004520 0.125453
v 0.161694 1.173830 0.125453
v -0.048706 -0.007701 0.112572
v 0.178209 1.170650 0.112572
v -0.036434 -0.010064 0.097877
v 0.190480 1.168287 0.097877
v -0.028878 -0.011519 0.081931
v 0.198037 1.166831 0.081931
v -0.026326 -0.012010 0.065349
v 0.200589 1.166340 0.065349
v -0.028878 -0.011519 0.048766
v 0.198037 1.166831 0.048766
v -0.036434 -0.010064 0.032821
v 0.190480 1.168287 0.032821
v -0.048706 -0.007701 0.018125
v 0.178209 1.170650 0.018125
v -0.065221 -0.004520 0.005245
v 0.161694 1.173830 0.005245
v -0.085344 -0.000645 -0.005326
v 0.141571 1.177705 -0.005326
v -0.108302 0.003776 -0.013181
v 0.118612 1.182126 -0.013181
v -0.133214 0.008573 -0.018018
v 0.093701 1.186924 -0.018018
v -0.159121 0.013562 -0.019651
v 0.067794 1.191912 -0.019651
v -0.185028 0.018551 -0.018018
v 0.041887 1.196901 -0.018018
v -0.209939 0.023348 -0.013181
v 0.016975 1.201699 -0.013181
v -0.232898 0.027769 -0.005326
v -0.005983 1.206120 -0.005326
v -0.253021 0.031644 0.005245
v -0.026106 1.209995 0.005245
v -0.269535 0.034825 0.018125
v -0.042621 1.213175 0.018125
v -0.281807 0.037188 0.032821
v -0.054893 1.215538 0.032821
v -0.289364 0.038643 0.048766
v -0.062449 1.216993 0.048766
v -0.291915 0.039134 0.065349
v -0.065001 1.217485 0.065349
v -0.289364 0.038643 0.081932
v -0.062449 1.216993 0.081932
v -0.281807 0.037188 0.097877
v -0.054892 1.215538 0.097877
v -0.269535 0.034824 0.112572
v -0.042621 1.213175 0.112572
v -0.253021 0.031644 0.125453
v -0.026106 1.209995 0.125453
v -0.232897 0.027769 0.136024
v -0.005983 1.206120 0.136024
v -0.209939 0.023348 0.143879
v 0.016976 1.201698 0.143879
v -0.185027 0.018551 0.148716
v 0.041887 1.196901 0.148716
vn -0.0607 0.0117 -0.9981
vn -0.1839 0.0354 -0.9823
vn -0.3127 0.0602 -0.9479
vn -0.4502 0.0867 -0.8887
vn -0.5971 0.1150 -0.7939
vn -0.7480 0.1441 -0.6478
vn -0.8844 0.1703 -0.4346
vn -0.9701 0.1868 -0.1548
vn -0.9701 0.1868 0.1548
vn -0.8844 0.1703 0.4347
vn -0.7480 0.1441 0.6478
vn -0.5971 0.1150 0.7939
vn -0.4502 0.0867 0.8887
vn -0.3127 0.0602 0.9479
vn -0.1839 0.0354 0.9823
vn -0.0607 0.0117 0.9981
vn 0.0607 -0.0117 0.9981
vn 0.1839 -0.0354 0.9823
vn 0.3127 -0.0602 0.9479
vn 0.4502 -0.0867 0.8887
vn 0.5971 -0.1150 0.7939
vn 0.7480 -0.1441 0.6478
vn 0.8844 -0.1703 0.4346
vn 0.9701 -0.1868 0.1548
vn 0.9701 -0.1868 -0.1548
vn 0.8844 -0.1703 -0.4347
vn 0.7480 -0.1441 -0.6478
vn 0.5971 -0.1150 -0.7939
vn 0.4502 -0.0867 -0.8887
vn 0.3127 -0.0602 -0.9479
vn -0.1891 -0.9820 -0.0000
vn 0.1839 -0.0354 -0.9823
vn 0.0607 -0.0117 -0.9981
vn 0.1891 0.9820 0.0000
vn -0.8844 0.1703 -0.4347
s off
f 2//1 3//1 1//1
f 3//2 6//2 5//2
f 6//3 7//3 5//3
f 8//4 9//4 7//4
f 10//5 11//5 9//5
f 12//6 13//6 11//6
f 14//7 15//7 13//7
f 16//8 17//8 15//8
f 17//9 20//9 19//9
f 20//10 21//10 19//10
f 22//11 23//11 21//11
f 24//12 25//12 23//12
f 26//13 27//13 25//13
f 28//14 29//14 27//14
f 29//15 32//15 31//15
f 32//16 33//16 31//16
f 34//17 35//17 33//17
f 36//18 37//18 35//18
f 38//19 39//19 37//19
f 40//20 41//20 39//20
f 42//21 43//21 41//21
f 44//22 45//22 43//22
f 46//23 47//23 45//23
f 47//24 50//24 49//24
f 50//25 51//25 49//25
f 52//26 53//26 51//26
f 54//27 55//27 53//27
f 56//28 57//28 55//28
f 58//29 59//29 57//29
f 60//30 61//30 59//30
f 26//31 8//31 28//31
f 62//32 63//32 61//32
f 64//33 1//33 63//33
f 39//34 61//34 37//34
f 2//1 4//1 3//1
f 3//2 4//2 6//2
f 6//3 8//3 7//3
f 8//4 10//4 9//4
f 10//5 12//5 11//5
f 12//6 14//6 13//6
f 14//35 16//35 15//35
f 16//8 18//8 17//8
f 17//9 18//9 20//9
f 20//10 22//10 21//10
f 22//11 24//11 23//11
f 24//12 26//12 25//12
f 26//13 28//13 27//13
f 28//14 30//14 29//14
f 29//15 30//15 32//15
f 32//16 34//16 33//16
f 34//17 36//17 35//17
f 36//18 38//18 37//18
f 38//19 40//19 39//19
f 40//20 42//20 41//20
f 42//21 44//21 43//21
f 44//22 46//22 45//22
f 46//23 48//23 47//23
f 47//24 48//24 50//24
f 50//25 52//25 51//25
f 52//26 54//26 53//26
f 54//27 56//27 55//27
f 56//28 58//28 57//28
f 58//29 60//29 59//29
f 60//30 62//30 61//30
f 6//31 4//31 32//31
f 2//31 64//31 36//31
f 62//31 60//31 38//31
f 58//31 56//31 42//31
f 54//31 52//31 48//31
f 50//31 48//31 52//31
f 46//31 44//31 54//31
f 42//31 40//31 58//31
f 38//31 36//31 64//31
f 34//31 32//31 4//31
f 30//31 28//31 6//31
f 26//31 24//31 10//31
f 22//31 20//31 16//31
f 18//31 16//31 20//31
f 14//31 12//31 22//31
f 10//31 8//31 26//31
f 4//31 2//31 34//31
f 60//31 40//31 38//31
f 54//31 48//31 46//31
f 44//31 56//31 54//31
f 36//31 34//31 2//31
f 28//31 8//31 6//31
f 22//31 16//31 14//31
f 12//31 24//31 22//31
f 64//31 62//31 38//31
f 44//31 42//31 56//31
f 32//31 30//31 6//31
f 12//31 10//31 24//31
f 58//31 40//31 60//31
f 62//32 64//32 63//32
f 64//33 2//33 1//33
f 63//34 1//34 33//34
f 3//34 5//34 31//34
f 7//34 9//34 25//34
f 11//34 13//34 23//34
f 15//34 17//34 19//34
f 19//34 21//34 15//34
f 23//34 25//34 9//34
f 27//34 29//34 7//34
f 31//34 33//34 1//34
f 35//34 37//34 63//34
f 39//34 41//34 57//34
f 43//34 45//34 55//34
f 47//34 49//34 51//34
f 51//34 53//34 47//34
f 55//34 57//34 41//34
f 59//34 61//34 39//34
f 1//34 3//34 31//34
f 9//34 11//34 23//34
f 15//34 21//34 13//34
f 25//34 27//34 7//34
f 33//34 35//34 63//34
f 41//34 43//34 55//34
f 47//34 53//34 45//34
f 57//34 59//34 39//34
f 5//34 29//34 31//34
f 21//34 23//34 13//34
f 37//34 61//34 63//34
f 53//34 55//34 45//34
f 7//34 29//34 5//34
o Torus
v 0.562639 1.195811 0.062454
v 0.534202 1.229700 -0.029411
v 0.470305 1.305850 -0.052100
v 0.419063 1.366917 0.011473
v 0.419063 1.366917 0.113436
v 0.470305 1.305850 0.177008
v 0.534202 1.229700 0.154320
v 0.068590 1.070010 0.062454
v 0.077356 1.113373 -0.029411
v 0.097053 1.210808 -0.052100
v 0.112849 1.288945 0.011473
v 0.112849 1.288945 0.113436
v 0.097053 1.210808 0.177008
v 0.077356 1.113373 0.154320
v -0.337799 1.377838 0.062454
v -0.298431 1.398021 -0.029411
v -0.209972 1.443371 -0.052100
v -0.139033 1.479739 0.011473
v -0.139033 1.479739 0.113436
v -0.209972 1.443371 0.177008
v -0.298431 1.398021 0.154320
v -0.350509 1.887493 0.062454
v -0.310184 1.869297 -0.029411
v -0.219574 1.828413 -0.052100
v -0.146911 1.795626 0.011473
v -0.146911 1.795626 0.113436
v -0.219574 1.828413 0.177008
v -0.310184 1.869297 0.154320
v 0.772319 1.660509 0.062454
v 0.728092 1.659406 -0.029411
v 0.628717 1.656927 -0.052100
v 0.549024 1.654940 0.011473
v 0.549024 1.654940 0.113436
v 0.628717 1.656927 0.177008
v 0.728092 1.659406 0.154320
vn 0.2264 -0.8890 -0.3980
vn 0.0606 -0.2380 -0.9694
vn -0.1635 0.6423 -0.7488
vn -0.2468 0.9691 -0.0000
vn -0.1635 0.6423 0.7488
vn 0.0606 -0.2380 0.9694
vn 0.2264 -0.8890 0.3980
vn -0.5539 -0.7313 -0.3980
vn -0.1483 -0.1958 -0.9694
vn 0.4002 0.5283 -0.7488
vn 0.6038 0.7971 0.0000
vn 0.4002 0.5283 0.7488
vn -0.1483 -0.1958 0.9694
vn -0.5539 -0.7313 0.3980
vn -0.9171 -0.0229 -0.3980
vn -0.2455 -0.0061 -0.9694
vn 0.6626 0.0165 -0.7488
vn 0.9997 0.0249 0.0000
vn 0.6626 0.0165 0.7488
vn -0.2455 -0.0061 0.9694
vn -0.9171 -0.0229 0.3980
vn 0.8362 -0.3773 -0.3980
vn 0.2238 -0.1010 -0.9694
vn -0.6041 0.2726 -0.7488
vn -0.9115 0.4113 0.0000
vn -0.6041 0.2726 0.7488
vn 0.2238 -0.1010 0.9694
vn 0.8362 -0.3773 0.3980
s off
f 72//36 66//36 65//36
f 73//37 67//37 66//37
f 74//38 68//38 67//38
f 75//39 69//39 68//39
f 76//40 70//40 69//40
f 77//41 71//41 70//41
f 71//42 72//42 65//42
f 79//43 73//43 72//43
f 80//44 74//44 73//44
f 81//45 75//45 74//45
f 82//46 76//46 75//46
f 83//47 77//47 76//47
f 84//48 78//48 77//48
f 85//49 72//49 78//49
f 79//50 87//50 80//50
f 87//51 81//51 80//51
f 88//52 82//52 81//52
f 89//53 83//53 82//53
f 90//54 84//54 83//54
f 84//55 92//55 85//55
f 92//56 79//56 85//56
f 65//57 94//57 93//57
f 66//58 95//58 94//58
f 95//59 68//59 96//59
f 68//60 97//60 96//60
f 69//61 98//61 97//61
f 98//62 71//62 99//62
f 71//63 93//63 99//63
f 72//36 73//36 66//36
f 73//37 74//37 67//37
f 74//38 75//38 68//38
f 75//39 76//39 69//39
f 76//40 77//40 70//40
f 77//41 78//41 71//41
f 71//42 78//42 72//42
f 79//43 80//43 73//43
f 80//44 81//44 74//44
f 81//45 82//45 75//45
f 82//46 83//46 76//46
f 83//47 84//47 77//47
f 84//48 85//48 78//48
f 85//49 79//49 72//49
f 79//50 86//50 87//50
f 87//51 88//51 81//51
f 88//52 89//52 82//52
f 89//53 90//53 83//53
f 90//54 91//54 84//54
f 84//55 91//55 92//55
f 92//56 86//56 79//56
f 65//57 66//57 94//57
f 66//58 67//58 95//58
f 95//59 67//59 68//59
f 68//60 69//60 97//60
f 69//61 70//61 98//61
f 98//62 70//62 71//62
f 71//63 65//63 93//63
