# Blender v2.77 (sub 0) OBJ File: ''
# www.blender.org
mtllib speedShot.mtl
o Torus.001
v 1.198158 0.134434 0.033087
v 1.104031 0.329892 0.033087
v 0.892528 0.378166 0.033087
v 0.722916 0.242905 0.033087
v 0.722916 0.025963 0.033087
v 0.892528 -0.109298 0.033087
v 1.104031 -0.061024 0.033087
v -0.676842 0.134434 -1.049445
v -0.629778 0.329892 -0.967928
v -0.524027 0.378166 -0.784762
v -0.439221 0.242905 -0.637873
v -0.439221 0.025963 -0.637873
v -0.524027 -0.109298 -0.784762
v -0.629778 -0.061024 -0.967928
v -0.676842 0.134434 1.115618
v -0.629778 0.329892 1.034102
v -0.524027 0.378166 0.850935
v -0.439221 0.242905 0.704047
v -0.439221 0.025963 0.704047
v -0.524027 -0.109298 0.850935
v -0.629778 -0.061024 1.034102
vt 1.0000 0.0000
vt 0.0000 1.0000
vt 0.0000 0.0000
vt 0.0000 0.0000
vt 1.0000 1.0000
vt 0.0000 1.0000
vt 1.0000 0.0000
vt 0.0000 1.0000
vt 0.0000 0.0000
vt 1.0000 0.0000
vt 0.0000 1.0000
vt 0.0000 0.0000
vt 1.0000 0.0000
vt 0.0000 1.0000
vt 0.0000 0.0000
vt 1.0000 0.0000
vt 0.0000 1.0000
vt 0.0000 0.0000
vt 1.0000 0.0000
vt 0.0000 1.0000
vt 1.0000 0.0000
vt 0.0000 1.0000
vt 0.0000 0.0000
vt 1.0000 0.0000
vt 0.0000 1.0000
vt 0.0000 0.0000
vt 1.0000 0.0000
vt 0.0000 1.0000
vt 0.0000 0.0000
vt 1.0000 0.0000
vt 0.0000 1.0000
vt 0.0000 0.0000
vt 1.0000 0.0000
vt 0.0000 1.0000
vt 0.0000 0.0000
vt 1.0000 0.0000
vt 0.0000 1.0000
vt 0.0000 0.0000
vt 1.0000 0.0000
vt 0.0000 0.0000
vt 0.0000 0.0000
vt 1.0000 1.0000
vt 0.0000 1.0000
vt 1.0000 0.0000
vt 0.0000 1.0000
vt 0.0000 0.0000
vt 1.0000 0.0000
vt 0.0000 1.0000
vt 0.0000 0.0000
vt 1.0000 0.0000
vt 0.0000 1.0000
vt 0.0000 0.0000
vt 1.0000 0.0000
vt 0.0000 1.0000
vt 0.0000 0.0000
vt 1.0000 0.0000
vt 0.0000 1.0000
vt 0.0000 0.0000
vt 0.0000 1.0000
vt 0.0000 0.0000
vt 1.0000 1.0000
vt 1.0000 0.0000
vt 1.0000 1.0000
vt 1.0000 1.0000
vt 1.0000 1.0000
vt 1.0000 1.0000
vt 1.0000 1.0000
vt 1.0000 1.0000
vt 1.0000 1.0000
vt 1.0000 1.0000
vt 1.0000 1.0000
vt 1.0000 1.0000
vt 1.0000 1.0000
vt 1.0000 0.0000
vt 1.0000 1.0000
vt 1.0000 1.0000
vt 1.0000 1.0000
vt 1.0000 1.0000
vt 1.0000 1.0000
vt 1.0000 1.0000
vn 0.4861 0.2341 -0.8420
vn 0.2076 0.9097 -0.3596
vn -0.4236 0.5312 0.7337
vn -0.5000 0.0000 0.8660
vn -0.4236 -0.5312 0.7337
vn 0.2076 -0.9097 -0.3596
vn 0.4861 -0.2341 -0.8420
vn -0.9722 0.2341 0.0000
vn -0.4153 0.9097 -0.0000
vn 0.8472 0.5312 -0.0000
vn 1.0000 -0.0000 0.0000
vn 0.8472 -0.5312 0.0000
vn -0.4153 -0.9097 0.0000
vn -0.9722 -0.2341 0.0000
vn 0.4861 0.2341 0.8420
vn 0.2076 0.9097 0.3596
vn -0.4236 0.5312 -0.7337
vn -0.5000 0.0000 -0.8660
vn -0.4236 -0.5312 -0.7337
vn 0.2076 -0.9097 0.3596
vn 0.4861 -0.2341 0.8420
usemtl None
s off
f 8/1/1 2/2/1 1/3/1
f 2/4/2 10/5/2 3/6/2
f 10/7/3 4/8/3 3/9/3
f 11/10/4 5/11/4 4/12/4
f 12/13/5 6/14/5 5/15/5
f 13/16/6 7/17/6 6/18/6
f 7/19/7 8/20/7 1/3/7
f 15/21/8 9/22/8 8/23/8
f 16/24/9 10/25/9 9/26/9
f 17/27/10 11/28/10 10/29/10
f 18/30/11 12/31/11 11/32/11
f 19/33/12 13/34/12 12/35/12
f 20/36/13 14/37/13 13/38/13
f 21/39/14 8/20/14 14/40/14
f 15/41/15 2/42/15 16/43/15
f 2/44/16 17/45/16 16/46/16
f 3/47/17 18/48/17 17/49/17
f 4/50/18 19/51/18 18/52/18
f 5/53/19 20/54/19 19/55/19
f 6/56/20 21/57/20 20/58/20
f 7/19/21 15/59/21 21/60/21
f 8/1/1 9/61/1 2/2/1
f 2/4/2 9/62/2 10/5/2
f 10/7/3 11/63/3 4/8/3
f 11/10/4 12/64/4 5/11/4
f 12/13/5 13/65/5 6/14/5
f 13/16/6 14/66/6 7/17/6
f 7/19/7 14/66/7 8/20/7
f 15/21/8 16/67/8 9/22/8
f 16/24/9 17/68/9 10/25/9
f 17/27/10 18/69/10 11/28/10
f 18/30/11 19/70/11 12/31/11
f 19/33/12 20/71/12 13/34/12
f 20/36/13 21/72/13 14/37/13
f 21/39/14 15/73/14 8/20/14
f 15/41/15 1/74/15 2/42/15
f 2/44/16 3/75/16 17/45/16
f 3/47/17 4/76/17 18/48/17
f 4/50/18 5/77/18 19/51/18
f 5/53/19 6/78/19 20/54/19
f 6/56/20 7/79/20 21/57/20
f 7/19/21 1/80/21 15/59/21
