# Blender v2.77 (sub 0) OBJ File: ''
# www.blender.org
mtllib strongShot.mtl
o Torus.002
v -0.001796 0.027095 -0.356761
v 0.214710 0.402095 -0.356761
v -0.218303 0.402095 -0.356761
v -0.001796 1.902095 -1.439293
v 0.214710 1.714595 -1.114533
v -0.218303 1.714595 -1.114533
v -0.001796 1.902095 0.725771
v 0.214710 1.714595 0.401011
v -0.218303 1.714595 0.401011
vt 1.0000 0.0000
vt 0.0000 1.0000
vt 0.0000 0.0000
vt 1.0000 0.0000
vt 0.0000 1.0000
vt 0.0000 0.0000
vt 1.0000 0.0000
vt 0.0000 1.0000
vt 1.0000 0.0000
vt 0.0000 1.0000
vt 0.0000 0.0000
vt 1.0000 0.0000
vt 0.0000 1.0000
vt 0.0000 0.0000
vt 1.0000 0.0000
vt 0.0000 0.0000
vt 1.0000 0.0000
vt 0.0000 1.0000
vt 0.0000 0.0000
vt 1.0000 0.0000
vt 0.0000 1.0000
vt 0.0000 0.0000
vt 0.0000 0.0000
vt 1.0000 1.0000
vt 0.0000 1.0000
vt 1.0000 1.0000
vt 1.0000 1.0000
vt 1.0000 1.0000
vt 1.0000 1.0000
vt 1.0000 1.0000
vt 1.0000 1.0000
vt 1.0000 1.0000
vn 0.6547 -0.3780 -0.6547
vn 0.0000 0.5000 0.8660
vn -0.6547 -0.3780 -0.6547
vn 0.6547 0.7559 0.0000
vn 0.0000 -1.0000 0.0000
vn -0.6547 0.7559 -0.0000
vn 0.6547 -0.3780 0.6547
vn 0.0000 0.5000 -0.8660
vn -0.6547 -0.3780 0.6547
usemtl None
s off
f 4/1/1 2/2/1 1/3/1
f 5/4/2 3/5/2 2/6/2
f 3/7/3 4/8/3 1/3/3
f 7/9/4 5/10/4 4/11/4
f 8/12/5 6/13/5 5/14/5
f 9/15/6 4/8/6 6/16/6
f 1/17/7 8/18/7 7/19/7
f 2/20/8 9/21/8 8/22/8
f 9/23/9 1/24/9 7/25/9
f 4/1/1 5/26/1 2/2/1
f 5/4/2 6/27/2 3/5/2
f 3/7/3 6/27/3 4/8/3
f 7/9/4 8/28/4 5/10/4
f 8/12/5 9/29/5 6/13/5
f 9/15/6 7/30/6 4/8/6
f 1/17/7 2/31/7 8/18/7
f 2/20/8 3/32/8 9/21/8
f 9/23/9 3/7/9 1/24/9
