# Blender v2.77 (sub 0) OBJ File: ''
# www.blender.org
mtllib TeamHouse.mtl
o Cube_Cube.001
v -1.024449 -0.063505 1.028987
v -1.024449 0.616495 1.028987
v -1.024449 -0.063505 -0.971013
v -1.024449 0.616495 -0.971013
v 0.975551 -0.063505 1.028987
v 0.975551 0.616495 1.028987
v 0.975551 -0.063505 -0.971013
v 0.975551 0.616495 -0.971013
vt 0.0000 0.0000
vt 1.0000 0.0000
vt 1.0000 1.0000
vt 0.0000 1.0000
vt 0.0000 0.0000
vt 1.0000 0.0000
vt 1.0000 1.0000
vt 0.0000 1.0000
vt 0.0000 0.0000
vt 1.0000 0.0000
vt 1.0000 1.0000
vt 0.0000 1.0000
vt 0.0000 0.0000
vt 1.0000 0.0000
vt 1.0000 1.0000
vt 0.0000 1.0000
vt 0.0000 0.0000
vt 1.0000 0.0000
vt 1.0000 1.0000
vt 0.0000 1.0000
vn -1.0000 0.0000 0.0000
vn -0.0000 0.0000 -1.0000
vn 1.0000 0.0000 0.0000
vn -0.0000 0.0000 1.0000
vn 0.0000 -1.0000 0.0000
vn 0.0000 1.0000 0.0000
usemtl None
s off
f 2/1/1 4/2/1 3/3/1 1/4/1
f 4/5/2 8/6/2 7/7/2 3/8/2
f 8/9/3 6/10/3 5/11/3 7/12/3
f 6/13/4 2/14/4 1/15/4 5/16/4
f 1/17/5 3/18/5 7/7/5 5/16/5
f 6/13/6 8/6/6 4/19/6 2/20/6
o Grid
v 0.000000 2.754476 0.009665
v -0.000000 2.828010 -0.717801
v -0.000000 2.545090 -1.445268
v -0.000000 2.754476 -2.172735
v 0.000000 3.100609 0.009665
v -0.000000 3.174143 -0.717801
v 0.000000 2.891223 -1.445268
v -0.000000 3.100609 -2.172735
v 0.000000 3.446743 0.009665
v 0.000000 3.520277 -0.717801
v 0.000000 3.237357 -1.445268
v -0.000000 3.446743 -2.172735
v 0.000000 3.792876 0.009665
v 0.000000 3.866410 -0.717801
v 0.000000 3.583490 -1.445268
v -0.000000 3.792876 -2.172735
vt 0.0000 0.0000
vt 1.0000 0.0000
vt 1.0000 1.0000
vt 0.0000 1.0000
vt 0.0000 0.0000
vt 1.0000 0.0000
vt 1.0000 1.0000
vt 0.0000 1.0000
vt 0.0000 0.0000
vt 1.0000 0.0000
vt 1.0000 1.0000
vt 0.0000 1.0000
vt 0.0000 0.0000
vt 1.0000 0.0000
vt 1.0000 1.0000
vt 0.0000 1.0000
vt 0.0000 0.0000
vt 1.0000 0.0000
vt 1.0000 1.0000
vt 0.0000 1.0000
vt 0.0000 0.0000
vt 1.0000 0.0000
vt 1.0000 1.0000
vt 0.0000 1.0000
vt 0.0000 0.0000
vt 1.0000 0.0000
vt 1.0000 1.0000
vt 0.0000 1.0000
vt 0.0000 0.0000
vt 1.0000 0.0000
vt 1.0000 1.0000
vt 0.0000 1.0000
vt 0.0000 0.0000
vt 1.0000 0.0000
vt 1.0000 1.0000
vt 0.0000 1.0000
vn 1.0000 -0.0000 -0.0000
usemtl None
s off
f 9/21/7 10/22/7 14/23/7 13/24/7
f 10/25/7 11/26/7 15/27/7 14/28/7
f 11/29/7 12/30/7 16/31/7 15/32/7
f 13/33/7 14/34/7 18/35/7 17/36/7
f 14/37/7 15/38/7 19/39/7 18/40/7
f 15/41/7 16/42/7 20/43/7 19/44/7
f 17/45/7 18/46/7 22/47/7 21/48/7
f 18/49/7 19/50/7 23/51/7 22/52/7
f 19/53/7 20/54/7 24/55/7 23/56/7
o Cylinder
v 0.000000 -0.011581 -0.090000
v 0.000000 3.828419 -0.090000
v 0.070365 -0.011581 -0.056114
v 0.070365 3.828419 -0.056114
v 0.087744 -0.011581 0.020027
v 0.087744 3.828419 0.020027
v 0.039050 -0.011581 0.081087
v 0.039050 3.828419 0.081087
v -0.039050 -0.011581 0.081087
v -0.039050 3.828419 0.081087
v -0.087744 -0.011581 0.020027
v -0.087744 3.828419 0.020027
v -0.070365 -0.011581 -0.056114
v -0.070365 3.828419 -0.056114
vt 0.0000 0.0000
vt 1.0000 0.0000
vt 1.0000 1.0000
vt 0.0000 1.0000
vt 0.0000 0.0000
vt 1.0000 0.0000
vt 1.0000 1.0000
vt 0.0000 1.0000
vt 0.0000 0.0000
vt 1.0000 0.0000
vt 1.0000 1.0000
vt 0.0000 1.0000
vt 0.0000 0.0000
vt 1.0000 0.0000
vt 1.0000 1.0000
vt 0.0000 1.0000
vt 0.0000 0.0000
vt 1.0000 0.0000
vt 1.0000 1.0000
vt 0.0000 1.0000
vt 0.5000 1.0000
vt 0.8909 0.8117
vt 0.9875 0.3887
vt 0.7169 0.0495
vt 0.2831 0.0495
vt 0.0125 0.3887
vt 0.1091 0.8117
vt 0.0000 0.0000
vt 1.0000 0.0000
vt 1.0000 1.0000
vt 0.0000 1.0000
vt 0.0000 0.0000
vt 1.0000 0.0000
vt 1.0000 1.0000
vt 0.0000 1.0000
vt 0.5000 1.0000
vt 0.8909 0.8117
vt 0.9875 0.3887
vt 0.7169 0.0495
vt 0.2831 0.0495
vt 0.0125 0.3887
vt 0.1091 0.8117
vn 0.4339 0.0000 -0.9010
vn 0.9749 0.0000 -0.2225
vn 0.7818 0.0000 0.6235
vn 0.0000 0.0000 1.0000
vn -0.7818 -0.0000 0.6235
vn 0.0000 1.0000 0.0000
vn -0.9749 -0.0000 -0.2225
vn -0.4339 -0.0000 -0.9010
vn 0.0000 -1.0000 0.0000
usemtl None
s off
f 25/57/8 26/58/8 28/59/8 27/60/8
f 27/61/9 28/62/9 30/63/9 29/64/9
f 29/65/10 30/66/10 32/67/10 31/68/10
f 31/69/11 32/70/11 34/71/11 33/72/11
f 33/73/12 34/74/12 36/75/12 35/76/12
f 28/77/13 26/78/13 38/79/13 36/80/13 34/81/13 32/82/13 30/83/13
f 35/84/14 36/85/14 38/86/14 37/87/14
f 37/88/15 38/89/15 26/90/15 25/91/15
f 25/92/16 27/93/16 29/94/16 31/95/16 33/96/16 35/97/16 37/98/16
